{
	"asset":{
		"generator":"Khronos glTF Blender I/O v3.6.27",
		"version":"2.0"
	},
	"scene":0,
	"scenes":[
		{
			"name":"Scene",
			"nodes":[
				2
			]
		}
	],
	"nodes":[
		{
			"mesh":0,
			"name":"Acceleration_Sensor",
			"rotation":[
				0,
				0,
				-1,
				7.549789415861596e-08
			],
			"scale":[
				0.19440361857414246,
				0.19440361857414246,
				0.19440363347530365
			]
		},
		{
			"children":[
				0
			],
			"name":"SensorContainer"
		},
		{
			"children":[
				1
			],
			"name":"CarCoverage_Modifed_300k",
			"rotation":[
				0.70710688829422,
				0,
				0,
				0.7071066498756409
			],
			"scale":[
				0.009999999776482582,
				0.009999996982514858,
				0.009999996982514858
			]
		}
	],
	"materials":[
		{
			"doubleSided":true,
			"name":"Default_Material.001",
			"pbrMetallicRoughness":{
				"metallicFactor":0,
				"roughnessFactor":0.5527864098548889
			}
		}
	],
	"meshes":[
		{
			"name":"Scene.002",
			"primitives":[
				{
					"attributes":{
						"POSITION":0,
						"NORMAL":1,
						"TEXCOORD_0":2
					},
					"indices":3,
					"material":0
				}
			]
		}
	],
	"accessors":[
		{
			"bufferView":0,
			"componentType":5126,
			"count":6343,
			"max":[
				100,
				100,
				-5.9604644775390625e-06
			],
			"min":[
				-110.16814422607422,
				-100.99979400634766,
				-128.35137939453125
			],
			"type":"VEC3"
		},
		{
			"bufferView":1,
			"componentType":5126,
			"count":6343,
			"type":"VEC3"
		},
		{
			"bufferView":2,
			"componentType":5126,
			"count":6343,
			"type":"VEC2"
		},
		{
			"bufferView":3,
			"componentType":5123,
			"count":7758,
			"type":"SCALAR"
		}
	],
	"bufferViews":[
		{
			"buffer":0,
			"byteLength":76116,
			"byteOffset":0,
			"target":34962
		},
		{
			"buffer":0,
			"byteLength":76116,
			"byteOffset":76116,
			"target":34962
		},
		{
			"buffer":0,
			"byteLength":50744,
			"byteOffset":152232,
			"target":34962
		},
		{
			"buffer":0,
			"byteLength":15516,
			"byteOffset":202976,
			"target":34963
		}
	],
	"buffers":[
		{
			"byteLength":218492,
			"uri":"data:application/octet-stream;base64,"
		}
	]
}
