{
	"asset":{
		"generator":"Khronos glTF Blender I/O v3.6.27",
		"version":"2.0"
	},
	"scene":0,
	"scenes":[
		{
			"name":"Scene",
			"nodes":[
				2
			]
		}
	],
	"nodes":[
		{
			"mesh":0,
			"name":"AmbientAir",
			"scale":[
				0.11215630918741226,
				0.11215630918741226,
				0.11215630918741226
			]
		},
		{
			"children":[
				0
			],
			"name":"SensorContainer"
		},
		{
			"children":[
				1
			],
			"name":"CarCoverage_Modifed_300k",
			"rotation":[
				0.70710688829422,
				0,
				0,
				0.7071066498756409
			],
			"scale":[
				0.009999999776482582,
				0.009999996982514858,
				0.009999996982514858
			]
		}
	],
	"materials":[
		{
			"doubleSided":true,
			"name":"Mat_Sensor_001.002",
			"pbrMetallicRoughness":{
				"baseColorFactor":[
					0.1294117420911789,
					0.6647220253944397,
					0.7450980544090271,
					1
				],
				"metallicFactor":0,
				"roughnessFactor":0.5527864098548889
			}
		}
	],
	"meshes":[
		{
			"name":"Scene.864",
			"primitives":[
				{
					"attributes":{
						"POSITION":0,
						"NORMAL":1,
						"TEXCOORD_0":2,
						"TEXCOORD_1":3
					},
					"indices":4,
					"material":0
				}
			]
		}
	],
	"accessors":[
		{
			"bufferView":0,
			"componentType":5126,
			"count":509,
			"max":[
				50,
				50,
				50
			],
			"min":[
				-50,
				-50,
				-50
			],
			"type":"VEC3"
		},
		{
			"bufferView":1,
			"componentType":5126,
			"count":509,
			"type":"VEC3"
		},
		{
			"bufferView":2,
			"componentType":5126,
			"count":509,
			"type":"VEC2"
		},
		{
			"bufferView":3,
			"componentType":5126,
			"count":509,
			"type":"VEC2"
		},
		{
			"bufferView":4,
			"componentType":5123,
			"count":2304,
			"type":"SCALAR"
		}
	],
	"bufferViews":[
		{
			"buffer":0,
			"byteLength":6108,
			"byteOffset":0,
			"target":34962
		},
		{
			"buffer":0,
			"byteLength":6108,
			"byteOffset":6108,
			"target":34962
		},
		{
			"buffer":0,
			"byteLength":4072,
			"byteOffset":12216,
			"target":34962
		},
		{
			"buffer":0,
			"byteLength":4072,
			"byteOffset":16288,
			"target":34962
		},
		{
			"buffer":0,
			"byteLength":4608,
			"byteOffset":20360,
			"target":34963
		}
	],
	"buffers":[
		{
			"byteLength":24968,
			"uri":"data:application/octet-stream;base64,"
		}
	]
}
