{
	"asset":{
		"generator":"Khronos glTF Blender I/O v3.6.27",
		"version":"2.0"
	},
	"scene":0,
	"scenes":[
		{
			"name":"Scene",
			"nodes":[
				2
			]
		}
	],
	"nodes":[
		{
			"mesh":0,
			"name":"Camshaft_Position",
			"rotation":[
				-0.7071069478988647,
				0,
				0,
				0.7071065902709961
			],
			"scale":[
				0.11178481578826904,
				0.11178477108478546,
				0.11178479343652725
			],
			"translation":[
				-8.303190231323242,
				68.68070220947266,
				43.34120178222656
			]
		},
		{
			"children":[
				0
			],
			"name":"SensorContainer"
		},
		{
			"children":[
				1
			],
			"name":"CarCoverage_Modifed_300k",
			"rotation":[
				0.70710688829422,
				0,
				0,
				0.7071066498756409
			],
			"scale":[
				0.009999999776482582,
				0.009999996982514858,
				0.009999996982514858
			]
		}
	],
	"materials":[
		{
			"doubleSided":true,
			"name":"Mat_Sensor_001.003",
			"pbrMetallicRoughness":{
				"baseColorFactor":[
					0.1294117420911789,
					0.6647220253944397,
					0.7450980544090271,
					1
				],
				"metallicFactor":0,
				"roughnessFactor":0.5527864098548889
			}
		}
	],
	"meshes":[
		{
			"name":"Scene.865",
			"primitives":[
				{
					"attributes":{
						"POSITION":0,
						"NORMAL":1,
						"TEXCOORD_0":2
					},
					"indices":3,
					"material":0
				}
			]
		}
	],
	"accessors":[
		{
			"bufferView":0,
			"componentType":5126,
			"count":12269,
			"max":[
				204.18951416015625,
				502.2110595703125,
				-423.0384216308594
			],
			"min":[
				-80.86903381347656,
				369.5668029785156,
				-698.6813354492188
			],
			"type":"VEC3"
		},
		{
			"bufferView":1,
			"componentType":5126,
			"count":12269,
			"type":"VEC3"
		},
		{
			"bufferView":2,
			"componentType":5126,
			"count":12269,
			"type":"VEC2"
		},
		{
			"bufferView":3,
			"componentType":5123,
			"count":19428,
			"type":"SCALAR"
		}
	],
	"bufferViews":[
		{
			"buffer":0,
			"byteLength":147228,
			"byteOffset":0,
			"target":34962
		},
		{
			"buffer":0,
			"byteLength":147228,
			"byteOffset":147228,
			"target":34962
		},
		{
			"buffer":0,
			"byteLength":98152,
			"byteOffset":294456,
			"target":34962
		},
		{
			"buffer":0,
			"byteLength":38856,
			"byteOffset":392608,
			"target":34963
		}
	],
	"buffers":[
		{
			"byteLength":431464,
			"uri":"data:application/octet-stream;base64,"
		}
	]
}
