{
	"asset":{
		"generator":"Khronos glTF Blender I/O v3.6.27",
		"version":"2.0"
	},
	"scene":0,
	"scenes":[
		{
			"name":"Scene",
			"nodes":[
				2
			]
		}
	],
	"nodes":[
		{
			"mesh":0,
			"name":"Intake_Air_Temperature",
			"rotation":[
				0,
				0,
				0.7071068286895752,
				0.7071067094802856
			],
			"scale":[
				0.009929999709129333,
				0.009929999709129333,
				0.009930000640451908
			],
			"translation":[
				-18.72178077697754,
				1.4996349818829913e-05,
				49.501670837402344
			]
		},
		{
			"children":[
				0
			],
			"name":"SensorContainer"
		},
		{
			"children":[
				1
			],
			"name":"CarCoverage_Modifed_300k",
			"rotation":[
				0.70710688829422,
				0,
				0,
				0.7071066498756409
			],
			"scale":[
				0.009999999776482582,
				0.009999996982514858,
				0.009999996982514858
			]
		}
	],
	"materials":[
		{
			"doubleSided":true,
			"name":"Mat_Sensor_001.006",
			"pbrMetallicRoughness":{
				"baseColorFactor":[
					0.1294117420911789,
					0.6647220253944397,
					0.7450980544090271,
					1
				],
				"metallicFactor":0,
				"roughnessFactor":0.5527864098548889
			}
		}
	],
	"meshes":[
		{
			"name":"Scene.867",
			"primitives":[
				{
					"attributes":{
						"POSITION":0,
						"NORMAL":1,
						"TEXCOORD_0":2
					},
					"indices":3,
					"material":0
				}
			]
		}
	],
	"accessors":[
		{
			"bufferView":0,
			"componentType":5126,
			"count":1020,
			"max":[
				4288.2099609375,
				-1499.2900390625,
				-4781.58984375
			],
			"min":[
				-3409.8701171875,
				-2344.650146484375,
				-5941.7001953125
			],
			"type":"VEC3"
		},
		{
			"bufferView":1,
			"componentType":5126,
			"count":1020,
			"type":"VEC3"
		},
		{
			"bufferView":2,
			"componentType":5126,
			"count":1020,
			"type":"VEC2"
		},
		{
			"bufferView":3,
			"componentType":5123,
			"count":4224,
			"type":"SCALAR"
		}
	],
	"bufferViews":[
		{
			"buffer":0,
			"byteLength":12240,
			"byteOffset":0,
			"target":34962
		},
		{
			"buffer":0,
			"byteLength":12240,
			"byteOffset":12240,
			"target":34962
		},
		{
			"buffer":0,
			"byteLength":8160,
			"byteOffset":24480,
			"target":34962
		},
		{
			"buffer":0,
			"byteLength":8448,
			"byteOffset":32640,
			"target":34963
		}
	],
	"buffers":[
		{
			"byteLength":41088,
			"uri":"data:application/octet-stream;base64,"
		}
	]
}
