{
	"asset":{
		"generator":"Khronos glTF Blender I/O v3.6.27",
		"version":"2.0"
	},
	"scene":0,
	"scenes":[
		{
			"name":"Scene",
			"nodes":[
				2
			]
		}
	],
	"nodes":[
		{
			"mesh":0,
			"name":"Mass_Air_Flow",
			"rotation":[
				0,
				0,
				0.7071068286895752,
				0.7071067094802856
			],
			"scale":[
				0.009929999709129333,
				0.009929999709129333,
				0.009930000640451908
			],
			"translation":[
				0,
				1.983910806302447e-05,
				65.48719787597656
			]
		},
		{
			"children":[
				0
			],
			"name":"SensorContainer"
		},
		{
			"children":[
				1
			],
			"name":"CarCoverage_Modifed_300k",
			"rotation":[
				0.70710688829422,
				0,
				0,
				0.7071066498756409
			],
			"scale":[
				0.009999999776482582,
				0.009999996982514858,
				0.009999996982514858
			]
		}
	],
	"materials":[
		{
			"doubleSided":true,
			"name":"Mat_Sensor_001.007",
			"pbrMetallicRoughness":{
				"baseColorFactor":[
					0.1294117420911789,
					0.6647220253944397,
					0.7450980544090271,
					1
				],
				"metallicFactor":0,
				"roughnessFactor":0.5527864098548889
			}
		}
	],
	"meshes":[
		{
			"name":"Scene.868",
			"primitives":[
				{
					"attributes":{
						"POSITION":0,
						"NORMAL":1,
						"TEXCOORD_0":2
					},
					"indices":3,
					"material":0
				}
			]
		}
	],
	"accessors":[
		{
			"bufferView":0,
			"componentType":5126,
			"count":1804,
			"max":[
				4095.090087890625,
				895.4000244140625,
				-6642.13037109375
			],
			"min":[
				-3846.889892578125,
				-794.510009765625,
				-6842.759765625
			],
			"type":"VEC3"
		},
		{
			"bufferView":1,
			"componentType":5126,
			"count":1804,
			"type":"VEC3"
		},
		{
			"bufferView":2,
			"componentType":5126,
			"count":1804,
			"type":"VEC2"
		},
		{
			"bufferView":3,
			"componentType":5123,
			"count":6168,
			"type":"SCALAR"
		}
	],
	"bufferViews":[
		{
			"buffer":0,
			"byteLength":21648,
			"byteOffset":0,
			"target":34962
		},
		{
			"buffer":0,
			"byteLength":21648,
			"byteOffset":21648,
			"target":34962
		},
		{
			"buffer":0,
			"byteLength":14432,
			"byteOffset":43296,
			"target":34962
		},
		{
			"buffer":0,
			"byteLength":12336,
			"byteOffset":57728,
			"target":34963
		}
	],
	"buffers":[
		{
			"byteLength":70064,
			"uri":"data:application/octet-stream;base64,"
		}
	]
}
