{
	"asset":{
		"generator":"Khronos glTF Blender I/O v3.6.27",
		"version":"2.0"
	},
	"scene":0,
	"scenes":[
		{
			"name":"Scene",
			"nodes":[
				2
			]
		}
	],
	"nodes":[
		{
			"mesh":0,
			"name":"Steering_Angle_Sensor",
			"rotation":[
				-0.5000002384185791,
				-0.5,
				0.4999999403953552,
				0.4999999403953552
			],
			"scale":[
				1.2697608470916748,
				1.2697607278823853,
				1.2697606086730957
			]
		},
		{
			"children":[
				0
			],
			"name":"SensorContainer"
		},
		{
			"children":[
				1
			],
			"name":"CarCoverage_Modifed_300k",
			"rotation":[
				0.70710688829422,
				0,
				0,
				0.7071066498756409
			],
			"scale":[
				0.009999999776482582,
				0.009999996982514858,
				0.009999996982514858
			]
		}
	],
	"materials":[
		{
			"doubleSided":true,
			"name":"Mat_Sensor_001",
			"pbrMetallicRoughness":{
				"baseColorFactor":[
					0.1294117420911789,
					0.6647220253944397,
					0.7450980544090271,
					1
				],
				"metallicFactor":0,
				"roughnessFactor":0.5527864098548889
			}
		}
	],
	"meshes":[
		{
			"name":"Scene.870",
			"primitives":[
				{
					"attributes":{
						"POSITION":0,
						"NORMAL":1,
						"TEXCOORD_0":2
					},
					"indices":3,
					"material":0
				}
			]
		}
	],
	"accessors":[
		{
			"bufferView":0,
			"componentType":5126,
			"count":1691,
			"max":[
				20.81664276123047,
				22.15283203125,
				27.349409103393555
			],
			"min":[
				-20.81664276123047,
				-22.042469024658203,
				-27.307165145874023
			],
			"type":"VEC3"
		},
		{
			"bufferView":1,
			"componentType":5126,
			"count":1691,
			"type":"VEC3"
		},
		{
			"bufferView":2,
			"componentType":5126,
			"count":1691,
			"type":"VEC2"
		},
		{
			"bufferView":3,
			"componentType":5123,
			"count":9120,
			"type":"SCALAR"
		}
	],
	"bufferViews":[
		{
			"buffer":0,
			"byteLength":20292,
			"byteOffset":0,
			"target":34962
		},
		{
			"buffer":0,
			"byteLength":20292,
			"byteOffset":20292,
			"target":34962
		},
		{
			"buffer":0,
			"byteLength":13528,
			"byteOffset":40584,
			"target":34962
		},
		{
			"buffer":0,
			"byteLength":18240,
			"byteOffset":54112,
			"target":34963
		}
	],
	"buffers":[
		{
			"byteLength":72352,
			"uri":"data:application/octet-stream;base64,"
		}
	]
}
