{
	"asset":{
		"generator":"Khronos glTF Blender I/O v3.6.27",
		"version":"2.0"
	},
	"scene":0,
	"scenes":[
		{
			"name":"Scene",
			"nodes":[
				2
			]
		}
	],
	"nodes":[
		{
			"mesh":0,
			"name":"Vehicle_Speed_",
			"rotation":[
				-0.70710688829422,
				0,
				0,
				0.7071066498756409
			],
			"scale":[
				0.11178002506494522,
				0.11177996546030045,
				0.11177998781204224
			]
		},
		{
			"children":[
				0
			],
			"name":"SensorContainer"
		},
		{
			"children":[
				1
			],
			"name":"CarCoverage_Modifed_300k",
			"rotation":[
				0.70710688829422,
				0,
				0,
				0.7071066498756409
			],
			"scale":[
				0.009999999776482582,
				0.009999996982514858,
				0.009999996982514858
			]
		}
	],
	"materials":[
		{
			"doubleSided":true,
			"name":"Mat_Sensor_001.009",
			"pbrMetallicRoughness":{
				"baseColorFactor":[
					0.1294117420911789,
					0.6647220253944397,
					0.7450980544090271,
					1
				],
				"metallicFactor":0,
				"roughnessFactor":0.5527864098548889
			}
		}
	],
	"meshes":[
		{
			"name":"Scene.871",
			"primitives":[
				{
					"attributes":{
						"POSITION":0,
						"NORMAL":1
					},
					"indices":2,
					"material":0
				}
			]
		}
	],
	"accessors":[
		{
			"bufferView":0,
			"componentType":5126,
			"count":6620,
			"max":[
				55.21757507324219,
				105.92642974853516,
				122.45964813232422
			],
			"min":[
				-55.21758270263672,
				-105.92642974853516,
				-122.45964813232422
			],
			"type":"VEC3"
		},
		{
			"bufferView":1,
			"componentType":5126,
			"count":6620,
			"type":"VEC3"
		},
		{
			"bufferView":2,
			"componentType":5123,
			"count":16662,
			"type":"SCALAR"
		}
	],
	"bufferViews":[
		{
			"buffer":0,
			"byteLength":79440,
			"byteOffset":0,
			"target":34962
		},
		{
			"buffer":0,
			"byteLength":79440,
			"byteOffset":79440,
			"target":34962
		},
		{
			"buffer":0,
			"byteLength":33324,
			"byteOffset":158880,
			"target":34963
		}
	],
	"buffers":[
		{
			"byteLength":192204,
			"uri":"data:application/octet-stream;base64,"
		}
	]
}
