{
	"asset":{
		"generator":"Khronos glTF Blender I/O v3.6.27",
		"version":"2.0"
	},
	"scene":0,
	"scenes":[
		{
			"name":"Scene",
			"nodes":[
				2
			]
		}
	],
	"nodes":[
		{
			"mesh":0,
			"name":"Wheel",
			"translation":[
				-160.63644409179688,
				100.37166595458984,
				37.336158752441406
			]
		},
		{
			"children":[
				0
			],
			"name":"SensorContainer"
		},
		{
			"children":[
				1
			],
			"name":"CarCoverage_Modifed_300k",
			"rotation":[
				0.70710688829422,
				0,
				0,
				0.7071066498756409
			],
			"scale":[
				0.009999999776482582,
				0.009999996982514858,
				0.009999996982514858
			]
		}
	],
	"materials":[
		{
			"doubleSided":true,
			"name":"tire_1.002",
			"pbrMetallicRoughness":{
				"baseColorFactor":[
					0.35893189907073975,
					0.35893189907073975,
					0.35893189907073975,
					1
				],
				"metallicFactor":0,
				"roughnessFactor":0.5527864098548889
			}
		},
		{
			"doubleSided":true,
			"name":"rim_1.002",
			"pbrMetallicRoughness":{
				"baseColorFactor":[
					0.8425250053405762,
					0.8425250053405762,
					0.8425250053405762,
					1
				],
				"metallicFactor":0,
				"roughnessFactor":0.5527864098548889
			}
		},
		{
			"doubleSided":true,
			"name":"chrome_1.002",
			"pbrMetallicRoughness":{
				"baseColorFactor":[
					0.7593809366226196,
					0.7593809366226196,
					0.7593809366226196,
					1
				],
				"metallicFactor":0,
				"roughnessFactor":0.5527864098548889
			}
		}
	],
	"meshes":[
		{
			"name":"Scene.872",
			"primitives":[
				{
					"attributes":{
						"POSITION":0,
						"NORMAL":1,
						"TEXCOORD_0":2
					},
					"indices":3,
					"material":0
				},
				{
					"attributes":{
						"POSITION":4,
						"NORMAL":5,
						"TEXCOORD_0":6
					},
					"indices":7,
					"material":1
				},
				{
					"attributes":{
						"POSITION":8,
						"NORMAL":9,
						"TEXCOORD_0":10
					},
					"indices":11,
					"material":2
				}
			]
		}
	],
	"accessors":[
		{
			"bufferView":0,
			"componentType":5126,
			"count":2632,
			"max":[
				198.44659423828125,
				-83.08512878417969,
				0.2511186897754669
			],
			"min":[
				119.71632385253906,
				-109.23139190673828,
				-78.47911071777344
			],
			"type":"VEC3"
		},
		{
			"bufferView":1,
			"componentType":5126,
			"count":2632,
			"type":"VEC3"
		},
		{
			"bufferView":2,
			"componentType":5126,
			"count":2632,
			"type":"VEC2"
		},
		{
			"bufferView":3,
			"componentType":5123,
			"count":12705,
			"type":"SCALAR"
		},
		{
			"bufferView":4,
			"componentType":5126,
			"count":2958,
			"max":[
				185.90892028808594,
				-84.37125396728516,
				-12.279242515563965
			],
			"min":[
				132.21725463867188,
				-108.35066986083984,
				-66.02182006835938
			],
			"type":"VEC3"
		},
		{
			"bufferView":5,
			"componentType":5126,
			"count":2958,
			"type":"VEC3"
		},
		{
			"bufferView":6,
			"componentType":5126,
			"count":2958,
			"type":"VEC2"
		},
		{
			"bufferView":7,
			"componentType":5123,
			"count":4854,
			"type":"SCALAR"
		},
		{
			"bufferView":8,
			"componentType":5126,
			"count":56,
			"max":[
				166.47116088867188,
				-104.72579193115234,
				-31.72543716430664
			],
			"min":[
				151.69325256347656,
				-107.81610870361328,
				-46.503726959228516
			],
			"type":"VEC3"
		},
		{
			"bufferView":9,
			"componentType":5126,
			"count":56,
			"type":"VEC3"
		},
		{
			"bufferView":10,
			"componentType":5126,
			"count":56,
			"type":"VEC2"
		},
		{
			"bufferView":11,
			"componentType":5123,
			"count":240,
			"type":"SCALAR"
		}
	],
	"bufferViews":[
		{
			"buffer":0,
			"byteLength":31584,
			"byteOffset":0,
			"target":34962
		},
		{
			"buffer":0,
			"byteLength":31584,
			"byteOffset":31584,
			"target":34962
		},
		{
			"buffer":0,
			"byteLength":21056,
			"byteOffset":63168,
			"target":34962
		},
		{
			"buffer":0,
			"byteLength":25410,
			"byteOffset":84224,
			"target":34963
		},
		{
			"buffer":0,
			"byteLength":35496,
			"byteOffset":109636,
			"target":34962
		},
		{
			"buffer":0,
			"byteLength":35496,
			"byteOffset":145132,
			"target":34962
		},
		{
			"buffer":0,
			"byteLength":23664,
			"byteOffset":180628,
			"target":34962
		},
		{
			"buffer":0,
			"byteLength":9708,
			"byteOffset":204292,
			"target":34963
		},
		{
			"buffer":0,
			"byteLength":672,
			"byteOffset":214000,
			"target":34962
		},
		{
			"buffer":0,
			"byteLength":672,
			"byteOffset":214672,
			"target":34962
		},
		{
			"buffer":0,
			"byteLength":448,
			"byteOffset":215344,
			"target":34962
		},
		{
			"buffer":0,
			"byteLength":480,
			"byteOffset":215792,
			"target":34963
		}
	],
	"buffers":[
		{
			"byteLength":216272,
			"uri":"data:application/octet-stream;base64,"
		}
	]
}
