{
	"asset":{
		"generator":"Khronos glTF Blender I/O v3.6.27",
		"version":"2.0"
	},
	"scene":0,
	"scenes":[
		{
			"name":"Scene",
			"nodes":[
				11
			]
		}
	],
	"nodes":[
		{
			"mesh":0,
			"name":"Acceleration_Sensor",
			"rotation":[
				0,
				0,
				-1,
				7.549789415861596e-08
			],
			"scale":[
				0.19440360367298126,
				0.19440361857414246,
				0.19440363347530365
			],
			"translation":[
				-99.19998931884766,
				52.100006103515625,
				-34.40000915527344
			]
		},
		{
			"mesh":1,
			"name":"AmbientAir",
			"scale":[
				0.11215630173683167,
				0.11215630918741226,
				0.11215630918741226
			],
			"translation":[
				-216.1000213623047,
				-5.00000524520874,
				-69.00000762939453
			]
		},
		{
			"mesh":2,
			"name":"Camshaft_Position",
			"rotation":[
				-0.7071069478988647,
				0,
				0,
				0.7071065902709961
			],
			"scale":[
				0.11178480833768845,
				0.11178475618362427,
				0.11178477853536606
			],
			"translation":[
				-169,
				-2.3762931959936395e-06,
				-38.00000762939453
			]
		},
		{
			"mesh":3,
			"name":"Engine_Coolant_Temperature",
			"rotation":[
				0,
				0,
				0.7071068286895752,
				0.7071067094802856
			],
			"scale":[
				0.009929998777806759,
				0.009929998777806759,
				0.009930000640451908
			],
			"translation":[
				-206.6000213623047,
				-1.360858186671976e-05,
				-36.70000076293945
			]
		},
		{
			"mesh":4,
			"name":"Intake_Air_Temperature",
			"rotation":[
				0,
				0,
				0.7071068286895752,
				0.7071067094802856
			],
			"scale":[
				0.009929998777806759,
				0.009929998777806759,
				0.009930000640451908
			],
			"translation":[
				-206.6000213623047,
				-1.360858186671976e-05,
				-36.70000076293945
			]
		},
		{
			"mesh":5,
			"name":"Mass_Air_Flow",
			"rotation":[
				0,
				0,
				0.7071068286895752,
				0.7071067094802856
			],
			"scale":[
				0.009929998777806759,
				0.009929998777806759,
				0.009930000640451908
			],
			"translation":[
				-206.6000213623047,
				-1.360858186671976e-05,
				-36.70000076293945
			]
		},
		{
			"mesh":6,
			"name":"Oxygen_Sensor",
			"rotation":[
				0,
				0,
				0.7071068286895752,
				0.7071067094802856
			],
			"scale":[
				0.009929998777806759,
				0.009929998777806759,
				0.009930000640451908
			],
			"translation":[
				-206.6000213623047,
				-1.360858186671976e-05,
				-36.70000076293945
			]
		},
		{
			"mesh":7,
			"name":"Steering_Angle_Sensor",
			"rotation":[
				-0.5000002980232239,
				-0.5,
				0.4999999403953552,
				0.49999988079071045
			],
			"scale":[
				1.2697609663009644,
				1.2697608470916748,
				1.2697607278823853
			],
			"translation":[
				-81.56134796142578,
				49.151954650878906,
				-109.71868896484375
			]
		},
		{
			"mesh":8,
			"name":"Vehicle_Speed_",
			"rotation":[
				-0.70710688829422,
				0,
				0,
				0.7071066498756409
			],
			"scale":[
				0.11178002506494522,
				0.11177995055913925,
				0.11177997291088104
			],
			"translation":[
				-151.25,
				68.20475006103516,
				-43.55562210083008
			]
		},
		{
			"mesh":9,
			"name":"Wheel"
		},
		{
			"children":[
				0,
				1,
				2,
				3,
				4,
				5,
				6,
				7,
				8,
				9
			],
			"name":"SensorContainer"
		},
		{
			"children":[
				10
			],
			"name":"CarCoverage_Modifed_300k",
			"rotation":[
				0.70710688829422,
				0,
				0,
				0.7071066498756409
			],
			"scale":[
				0.009999999776482582,
				0.009999996051192284,
				0.009999996051192284
			]
		}
	],
	"materials":[
		{
			"doubleSided":true,
			"name":"Default_Material.002",
			"pbrMetallicRoughness":{
				"metallicFactor":0,
				"roughnessFactor":0.5527864098548889
			}
		},
		{
			"doubleSided":true,
			"name":"Mat_Sensor_001.002",
			"pbrMetallicRoughness":{
				"baseColorFactor":[
					0.1294117420911789,
					0.6647220253944397,
					0.7450980544090271,
					1
				],
				"metallicFactor":0,
				"roughnessFactor":0.5527864098548889
			}
		},
		{
			"doubleSided":true,
			"name":"tire_1.003",
			"pbrMetallicRoughness":{
				"baseColorFactor":[
					0.35893189907073975,
					0.35893189907073975,
					0.35893189907073975,
					1
				],
				"metallicFactor":0,
				"roughnessFactor":0.5527864098548889
			}
		},
		{
			"doubleSided":true,
			"name":"rim_1.003",
			"pbrMetallicRoughness":{
				"baseColorFactor":[
					0.8425250053405762,
					0.8425250053405762,
					0.8425250053405762,
					1
				],
				"metallicFactor":0,
				"roughnessFactor":0.5527864098548889
			}
		},
		{
			"doubleSided":true,
			"name":"chrome_1.003",
			"pbrMetallicRoughness":{
				"baseColorFactor":[
					0.7593809366226196,
					0.7593809366226196,
					0.7593809366226196,
					1
				],
				"metallicFactor":0,
				"roughnessFactor":0.5527864098548889
			}
		}
	],
	"meshes":[
		{
			"name":"Scene.017",
			"primitives":[
				{
					"attributes":{
						"POSITION":0,
						"NORMAL":1,
						"TEXCOORD_0":2
					},
					"indices":3,
					"material":0
				}
			]
		},
		{
			"name":"Scene.018",
			"primitives":[
				{
					"attributes":{
						"POSITION":4,
						"NORMAL":5,
						"TEXCOORD_0":6,
						"TEXCOORD_1":7
					},
					"indices":8,
					"material":1
				}
			]
		},
		{
			"name":"Scene.019",
			"primitives":[
				{
					"attributes":{
						"POSITION":9,
						"NORMAL":10,
						"TEXCOORD_0":11
					},
					"indices":12,
					"material":1
				}
			]
		},
		{
			"name":"Scene.020",
			"primitives":[
				{
					"attributes":{
						"POSITION":13,
						"NORMAL":14,
						"TEXCOORD_0":15
					},
					"indices":16,
					"material":1
				}
			]
		},
		{
			"name":"Scene.021",
			"primitives":[
				{
					"attributes":{
						"POSITION":17,
						"NORMAL":18,
						"TEXCOORD_0":19
					},
					"indices":20,
					"material":1
				}
			]
		},
		{
			"name":"Scene.022",
			"primitives":[
				{
					"attributes":{
						"POSITION":21,
						"NORMAL":22,
						"TEXCOORD_0":23
					},
					"indices":24,
					"material":1
				}
			]
		},
		{
			"name":"Scene.023",
			"primitives":[
				{
					"attributes":{
						"POSITION":25,
						"NORMAL":26,
						"TEXCOORD_0":27
					},
					"indices":28,
					"material":1
				}
			]
		},
		{
			"name":"Scene.024",
			"primitives":[
				{
					"attributes":{
						"POSITION":29,
						"NORMAL":30,
						"TEXCOORD_0":31
					},
					"indices":32,
					"material":1
				}
			]
		},
		{
			"name":"Scene.025",
			"primitives":[
				{
					"attributes":{
						"POSITION":33,
						"NORMAL":34
					},
					"indices":35,
					"material":1
				}
			]
		},
		{
			"name":"Scene.026",
			"primitives":[
				{
					"attributes":{
						"POSITION":36,
						"NORMAL":37,
						"TEXCOORD_0":38
					},
					"indices":39,
					"material":2
				},
				{
					"attributes":{
						"POSITION":40,
						"NORMAL":41,
						"TEXCOORD_0":42
					},
					"indices":43,
					"material":3
				},
				{
					"attributes":{
						"POSITION":44,
						"NORMAL":45,
						"TEXCOORD_0":46
					},
					"indices":47,
					"material":4
				}
			]
		}
	],
	"accessors":[
		{
			"bufferView":0,
			"componentType":5126,
			"count":6346,
			"max":[
				100,
				100,
				-5.9604644775390625e-06
			],
			"min":[
				-110.16814422607422,
				-100.99979400634766,
				-128.35137939453125
			],
			"type":"VEC3"
		},
		{
			"bufferView":1,
			"componentType":5126,
			"count":6346,
			"type":"VEC3"
		},
		{
			"bufferView":2,
			"componentType":5126,
			"count":6346,
			"type":"VEC2"
		},
		{
			"bufferView":3,
			"componentType":5123,
			"count":7758,
			"type":"SCALAR"
		},
		{
			"bufferView":4,
			"componentType":5126,
			"count":509,
			"max":[
				50,
				50,
				50
			],
			"min":[
				-50,
				-50,
				-50
			],
			"type":"VEC3"
		},
		{
			"bufferView":5,
			"componentType":5126,
			"count":509,
			"type":"VEC3"
		},
		{
			"bufferView":6,
			"componentType":5126,
			"count":509,
			"type":"VEC2"
		},
		{
			"bufferView":7,
			"componentType":5126,
			"count":509,
			"type":"VEC2"
		},
		{
			"bufferView":8,
			"componentType":5123,
			"count":2304,
			"type":"SCALAR"
		},
		{
			"bufferView":9,
			"componentType":5126,
			"count":12269,
			"max":[
				204.18951416015625,
				502.2110595703125,
				-423.0384216308594
			],
			"min":[
				-80.86903381347656,
				369.5668029785156,
				-698.6813354492188
			],
			"type":"VEC3"
		},
		{
			"bufferView":10,
			"componentType":5126,
			"count":12269,
			"type":"VEC3"
		},
		{
			"bufferView":11,
			"componentType":5126,
			"count":12269,
			"type":"VEC2"
		},
		{
			"bufferView":12,
			"componentType":5123,
			"count":19428,
			"type":"SCALAR"
		},
		{
			"bufferView":13,
			"componentType":5126,
			"count":38,
			"max":[
				-2729.489990234375,
				1395.5599365234375,
				-6002.19970703125
			],
			"min":[
				-3205.22998046875,
				912.489990234375,
				-6810.18994140625
			],
			"type":"VEC3"
		},
		{
			"bufferView":14,
			"componentType":5126,
			"count":38,
			"type":"VEC3"
		},
		{
			"bufferView":15,
			"componentType":5126,
			"count":38,
			"type":"VEC2"
		},
		{
			"bufferView":16,
			"componentType":5123,
			"count":108,
			"type":"SCALAR"
		},
		{
			"bufferView":17,
			"componentType":5126,
			"count":1020,
			"max":[
				4288.2099609375,
				-1499.2900390625,
				-4781.58984375
			],
			"min":[
				-3409.8701171875,
				-2344.650146484375,
				-5941.7001953125
			],
			"type":"VEC3"
		},
		{
			"bufferView":18,
			"componentType":5126,
			"count":1020,
			"type":"VEC3"
		},
		{
			"bufferView":19,
			"componentType":5126,
			"count":1020,
			"type":"VEC2"
		},
		{
			"bufferView":20,
			"componentType":5123,
			"count":4224,
			"type":"SCALAR"
		},
		{
			"bufferView":21,
			"componentType":5126,
			"count":1804,
			"max":[
				4095.090087890625,
				895.4000244140625,
				-6642.13037109375
			],
			"min":[
				-3846.889892578125,
				-794.510009765625,
				-6842.759765625
			],
			"type":"VEC3"
		},
		{
			"bufferView":22,
			"componentType":5126,
			"count":1804,
			"type":"VEC3"
		},
		{
			"bufferView":23,
			"componentType":5126,
			"count":1804,
			"type":"VEC2"
		},
		{
			"bufferView":24,
			"componentType":5123,
			"count":6168,
			"type":"SCALAR"
		},
		{
			"bufferView":25,
			"componentType":5126,
			"count":880,
			"max":[
				-3353.77001953125,
				1830.330078125,
				-4092.39990234375
			],
			"min":[
				-4746.41015625,
				-1480.260009765625,
				-6698.80908203125
			],
			"type":"VEC3"
		},
		{
			"bufferView":26,
			"componentType":5126,
			"count":880,
			"type":"VEC3"
		},
		{
			"bufferView":27,
			"componentType":5126,
			"count":880,
			"type":"VEC2"
		},
		{
			"bufferView":28,
			"componentType":5123,
			"count":3582,
			"type":"SCALAR"
		},
		{
			"bufferView":29,
			"componentType":5126,
			"count":1691,
			"max":[
				20.81664276123047,
				22.15283203125,
				27.349409103393555
			],
			"min":[
				-20.81664276123047,
				-22.042469024658203,
				-27.307165145874023
			],
			"type":"VEC3"
		},
		{
			"bufferView":30,
			"componentType":5126,
			"count":1691,
			"type":"VEC3"
		},
		{
			"bufferView":31,
			"componentType":5126,
			"count":1691,
			"type":"VEC2"
		},
		{
			"bufferView":32,
			"componentType":5123,
			"count":9120,
			"type":"SCALAR"
		},
		{
			"bufferView":33,
			"componentType":5126,
			"count":6623,
			"max":[
				55.21757507324219,
				105.92642974853516,
				122.45964813232422
			],
			"min":[
				-55.21758270263672,
				-105.92642974853516,
				-122.45964813232422
			],
			"type":"VEC3"
		},
		{
			"bufferView":34,
			"componentType":5126,
			"count":6623,
			"type":"VEC3"
		},
		{
			"bufferView":35,
			"componentType":5123,
			"count":16662,
			"type":"SCALAR"
		},
		{
			"bufferView":36,
			"componentType":5126,
			"count":2632,
			"max":[
				198.44659423828125,
				-83.08512878417969,
				0.2511186897754669
			],
			"min":[
				119.71632385253906,
				-109.23139190673828,
				-78.47911071777344
			],
			"type":"VEC3"
		},
		{
			"bufferView":37,
			"componentType":5126,
			"count":2632,
			"type":"VEC3"
		},
		{
			"bufferView":38,
			"componentType":5126,
			"count":2632,
			"type":"VEC2"
		},
		{
			"bufferView":39,
			"componentType":5123,
			"count":12705,
			"type":"SCALAR"
		},
		{
			"bufferView":40,
			"componentType":5126,
			"count":2958,
			"max":[
				185.90892028808594,
				-84.37125396728516,
				-12.279242515563965
			],
			"min":[
				132.21725463867188,
				-108.35066986083984,
				-66.02182006835938
			],
			"type":"VEC3"
		},
		{
			"bufferView":41,
			"componentType":5126,
			"count":2958,
			"type":"VEC3"
		},
		{
			"bufferView":42,
			"componentType":5126,
			"count":2958,
			"type":"VEC2"
		},
		{
			"bufferView":43,
			"componentType":5123,
			"count":4854,
			"type":"SCALAR"
		},
		{
			"bufferView":44,
			"componentType":5126,
			"count":56,
			"max":[
				166.47116088867188,
				-104.72579193115234,
				-31.72543716430664
			],
			"min":[
				151.69325256347656,
				-107.81610870361328,
				-46.503726959228516
			],
			"type":"VEC3"
		},
		{
			"bufferView":45,
			"componentType":5126,
			"count":56,
			"type":"VEC3"
		},
		{
			"bufferView":46,
			"componentType":5126,
			"count":56,
			"type":"VEC2"
		},
		{
			"bufferView":47,
			"componentType":5123,
			"count":240,
			"type":"SCALAR"
		}
	],
	"bufferViews":[
		{
			"buffer":0,
			"byteLength":76152,
			"byteOffset":0,
			"target":34962
		},
		{
			"buffer":0,
			"byteLength":76152,
			"byteOffset":76152,
			"target":34962
		},
		{
			"buffer":0,
			"byteLength":50768,
			"byteOffset":152304,
			"target":34962
		},
		{
			"buffer":0,
			"byteLength":15516,
			"byteOffset":203072,
			"target":34963
		},
		{
			"buffer":0,
			"byteLength":6108,
			"byteOffset":218588,
			"target":34962
		},
		{
			"buffer":0,
			"byteLength":6108,
			"byteOffset":224696,
			"target":34962
		},
		{
			"buffer":0,
			"byteLength":4072,
			"byteOffset":230804,
			"target":34962
		},
		{
			"buffer":0,
			"byteLength":4072,
			"byteOffset":234876,
			"target":34962
		},
		{
			"buffer":0,
			"byteLength":4608,
			"byteOffset":238948,
			"target":34963
		},
		{
			"buffer":0,
			"byteLength":147228,
			"byteOffset":243556,
			"target":34962
		},
		{
			"buffer":0,
			"byteLength":147228,
			"byteOffset":390784,
			"target":34962
		},
		{
			"buffer":0,
			"byteLength":98152,
			"byteOffset":538012,
			"target":34962
		},
		{
			"buffer":0,
			"byteLength":38856,
			"byteOffset":636164,
			"target":34963
		},
		{
			"buffer":0,
			"byteLength":456,
			"byteOffset":675020,
			"target":34962
		},
		{
			"buffer":0,
			"byteLength":456,
			"byteOffset":675476,
			"target":34962
		},
		{
			"buffer":0,
			"byteLength":304,
			"byteOffset":675932,
			"target":34962
		},
		{
			"buffer":0,
			"byteLength":216,
			"byteOffset":676236,
			"target":34963
		},
		{
			"buffer":0,
			"byteLength":12240,
			"byteOffset":676452,
			"target":34962
		},
		{
			"buffer":0,
			"byteLength":12240,
			"byteOffset":688692,
			"target":34962
		},
		{
			"buffer":0,
			"byteLength":8160,
			"byteOffset":700932,
			"target":34962
		},
		{
			"buffer":0,
			"byteLength":8448,
			"byteOffset":709092,
			"target":34963
		},
		{
			"buffer":0,
			"byteLength":21648,
			"byteOffset":717540,
			"target":34962
		},
		{
			"buffer":0,
			"byteLength":21648,
			"byteOffset":739188,
			"target":34962
		},
		{
			"buffer":0,
			"byteLength":14432,
			"byteOffset":760836,
			"target":34962
		},
		{
			"buffer":0,
			"byteLength":12336,
			"byteOffset":775268,
			"target":34963
		},
		{
			"buffer":0,
			"byteLength":10560,
			"byteOffset":787604,
			"target":34962
		},
		{
			"buffer":0,
			"byteLength":10560,
			"byteOffset":798164,
			"target":34962
		},
		{
			"buffer":0,
			"byteLength":7040,
			"byteOffset":808724,
			"target":34962
		},
		{
			"buffer":0,
			"byteLength":7164,
			"byteOffset":815764,
			"target":34963
		},
		{
			"buffer":0,
			"byteLength":20292,
			"byteOffset":822928,
			"target":34962
		},
		{
			"buffer":0,
			"byteLength":20292,
			"byteOffset":843220,
			"target":34962
		},
		{
			"buffer":0,
			"byteLength":13528,
			"byteOffset":863512,
			"target":34962
		},
		{
			"buffer":0,
			"byteLength":18240,
			"byteOffset":877040,
			"target":34963
		},
		{
			"buffer":0,
			"byteLength":79476,
			"byteOffset":895280,
			"target":34962
		},
		{
			"buffer":0,
			"byteLength":79476,
			"byteOffset":974756,
			"target":34962
		},
		{
			"buffer":0,
			"byteLength":33324,
			"byteOffset":1054232,
			"target":34963
		},
		{
			"buffer":0,
			"byteLength":31584,
			"byteOffset":1087556,
			"target":34962
		},
		{
			"buffer":0,
			"byteLength":31584,
			"byteOffset":1119140,
			"target":34962
		},
		{
			"buffer":0,
			"byteLength":21056,
			"byteOffset":1150724,
			"target":34962
		},
		{
			"buffer":0,
			"byteLength":25410,
			"byteOffset":1171780,
			"target":34963
		},
		{
			"buffer":0,
			"byteLength":35496,
			"byteOffset":1197192,
			"target":34962
		},
		{
			"buffer":0,
			"byteLength":35496,
			"byteOffset":1232688,
			"target":34962
		},
		{
			"buffer":0,
			"byteLength":23664,
			"byteOffset":1268184,
			"target":34962
		},
		{
			"buffer":0,
			"byteLength":9708,
			"byteOffset":1291848,
			"target":34963
		},
		{
			"buffer":0,
			"byteLength":672,
			"byteOffset":1301556,
			"target":34962
		},
		{
			"buffer":0,
			"byteLength":672,
			"byteOffset":1302228,
			"target":34962
		},
		{
			"buffer":0,
			"byteLength":448,
			"byteOffset":1302900,
			"target":34962
		},
		{
			"buffer":0,
			"byteLength":480,
			"byteOffset":1303348,
			"target":34963
		}
	],
	"buffers":[
		{
			"byteLength":1303828,
			"uri":"data:application/octet-stream;base64,"
		}
	]
}
